<?xml version="1.0" encoding="utf-8"?>
<!-- Generator: Adobe Illustrator 19.0.0, SVG Export Plug-In . SVG Version: 6.00 Build 0)  -->
<svg version="1.1" id="Isolation_Mode" xmlns="http://www.w3.org/2000/svg" xmlns:xlink="http://www.w3.org/1999/xlink" x="0px"
	 y="0px" viewBox="0 0 164 133" style="enable-background:new 0 0 164 133;" xml:space="preserve">
<g>
	<path d="M37.5,32c0-8.5-6.9-15.3-15.3-15.3H7.7c-1.6,0-2.2,0.6-2.2,2.1v4.7c0,1.6,0.6,2.2,2.2,2.2h9.3c5.5,0,8.4,1.9,8.4,7.2v2.6
		H15.2C7,35.6,0.3,42.3,0.3,50.5c0,8.9,6,14.9,13.2,14.9c7.7,0,10.4-3.4,12.8-6.6h0.4V63c0,1.6,0.6,2.2,2.1,2.2h6.3
		c1.6,0,2.2-0.6,2.2-2.2V32z M25.3,50.2c0,0-1.2,6-7.5,6c-3.6,0-5.8-2.7-5.8-6.7c0-3.7,2.9-6.8,6.7-6.8h6.6V50.2z"/>
	<path d="M161.1,16.7h-13.9c-1.6,0-2.2,0.6-2.2,2.2v4.3c0,1.6,0.6,2.2,2.2,2.2h3.7V63c0,1.6,0.6,2.2,2.2,2.2h7.9
		c1.5,0,2.1-0.6,2.1-2.2V18.9C163.2,17.3,162.6,16.7,161.1,16.7z"/>
	<path d="M81.4,65.3h7.8c1.6,0,2.2-0.6,2.2-2.2V33.9c0,0,1.5-7.7,6.8-7.7c4.4,0,5.4,2.7,5.4,8.1V63c0,1.6,0.6,2.2,2.2,2.2h7.8
		c1.6,0,2.2-0.6,2.2-2.2V33.9c0,0,1.3-7.7,6.6-7.7c4.5,0,5.4,2.7,5.4,8.1V63c0,1.6,0.6,2.2,2.2,2.2h7.8c1.6,0,2.2-0.6,2.3-2.2V33
		c0-10.9-4.9-16.4-12.6-16.4c-6,0-10.4,0.8-14.4,7.4h-0.4c-0.6-4-4.4-7.4-9.5-7.4c-6.1,0-9.9,2.7-12.5,7.4h-0.4v-5.1
		c0-1.6-0.6-2.2-2.2-2.2h-6.7c-1.6,0-2.2,0.6-2.2,2.2V63C79.2,64.6,79.8,65.3,81.4,65.3z"/>
	<path d="M71.1,16.7H60.9c-9.8,0-17.5,9.1-17.5,17.6v13.5c0,8.5,7.7,17.6,17.5,17.6h10.3c1.5,0,2.1-0.6,2.1-2.1V58
		c0-1.5-0.6-2.1-2.1-2.1h-7c-5.5,0-8.6-3.7-8.6-9V35.1c0-5.4,3-9,8.6-9h7c1.5,0,2.1-0.6,2.1-2.1v-5.2C73.3,17.3,72.7,16.7,71.1,16.7
		z"/>
	<path d="M161.5,0.2h-8.7c-1.6,0-2.2,0.6-2.2,2.2v5.5c0,1.6,0.6,2.2,2.2,2.2h8.7c1.5,0,2.1-0.6,2.1-2.2V2.4
		C163.7,0.8,163,0.2,161.5,0.2z"/>
	<path d="M79.3,87.5h1.3c0.3,0,0.4-0.2,0.5-0.4l0.6-2.6h3.3l0.6,2.6c0.1,0.3,0.2,0.4,0.5,0.4h1.3c0.3,0,0.5-0.1,0.5-0.4
		c0-0.1,0-0.2-0.1-0.4l-2.5-9.8c-0.1-0.4-0.3-0.7-0.8-0.7h-2.2c-0.4,0-0.6,0.3-0.7,0.7l-2.5,9.8c0,0.2-0.1,0.3-0.1,0.4
		C78.8,87.3,79,87.5,79.3,87.5z M82.3,81.5L83,78h0.5l0.7,3.5l0.4,1.4h-2.7L82.3,81.5z"/>
	<path d="M96.6,84v-7.4c0-0.3-0.1-0.4-0.4-0.4h-1.5c-0.3,0-0.4,0.1-0.4,0.4V84c0,1.1-0.4,1.7-1.6,1.7c-1.2,0-1.6-0.6-1.6-1.7v-7.4
		c0-0.3-0.1-0.4-0.4-0.4h-1.5c-0.3,0-0.4,0.1-0.4,0.4V84c0,1.8,1.5,3.5,3.4,3.5h0.9C95.1,87.5,96.6,85.8,96.6,84z"/>
	<path d="M101.5,85.7h-2.9c-0.3,0-0.4,0.1-0.4,0.4v1c0,0.3,0.1,0.4,0.4,0.4h3.2c1.6,0,2.9-1.3,2.9-2.9c0-0.6-0.3-1.5-0.7-1.9l-3.3-3
		c-0.2-0.2-0.3-0.5-0.3-0.7c0-0.5,0.4-0.9,0.9-0.9h2.4c0.3,0,0.4-0.1,0.4-0.4v-1c0-0.3-0.1-0.4-0.4-0.4h-2.6c-1.6,0-2.9,1.3-2.9,2.9
		c0,0.8,0.3,1.5,0.8,2l3.1,2.8c0.2,0.2,0.3,0.5,0.3,0.8C102.5,85.2,102.1,85.7,101.5,85.7z"/>
	<path d="M108.3,87.5h1.5c0.3,0,0.4-0.1,0.4-0.4V78h2.1c0.3,0,0.4-0.1,0.4-0.4v-1c0-0.3-0.1-0.4-0.4-0.4h-6.5
		c-0.3,0-0.4,0.1-0.4,0.4v1c0,0.3,0.1,0.4,0.4,0.4h2.1v9.1C107.9,87.4,108,87.5,108.3,87.5z"/>
	<path d="M119.2,82.5c1.3-0.1,2.3-1.4,2.3-3.2c0-1.9-1.4-3.1-3.1-3.1h-4c-0.3,0-0.4,0.1-0.4,0.4v10.5c0,0.3,0.1,0.4,0.4,0.4h1.5
		c0.3,0,0.4-0.1,0.4-0.4v-4.5h1.1l2.1,4.5c0.1,0.2,0.2,0.3,0.5,0.3h1.3c0.3,0,0.5-0.2,0.5-0.5c0-0.2-0.1-0.5-0.2-0.6l-1.5-2.9
		l-1.1-1v0L119.2,82.5z M117.9,81.1h-1.7v-3.2h1.5c1,0,1.4,0.6,1.4,1.5C119.2,80.3,119,81.1,117.9,81.1z"/>
	<path d="M128.1,76.2h-2.2c-0.4,0-0.6,0.3-0.7,0.7l-2.5,9.8c0,0.2-0.1,0.3-0.1,0.4c0,0.3,0.2,0.4,0.5,0.4h1.3c0.3,0,0.4-0.2,0.5-0.4
		l0.6-2.6h3.3l0.6,2.6c0.1,0.3,0.2,0.4,0.5,0.4h1.3c0.3,0,0.5-0.1,0.5-0.4c0-0.1,0-0.2-0.1-0.4l-2.5-9.8
		C128.7,76.5,128.5,76.2,128.1,76.2z M125.6,82.9l0.4-1.4l0.7-3.5h0.5l0.7,3.5l0.4,1.4H125.6z"/>
	<path d="M134.7,76.2h-1.5c-0.3,0-0.4,0.1-0.4,0.4v10.5c0,0.3,0.1,0.4,0.4,0.4h5.1c0.3,0,0.4-0.1,0.4-0.4v-1c0-0.3-0.1-0.4-0.4-0.4
		h-3.2v-9.1C135.1,76.3,135,76.2,134.7,76.2z"/>
	<path d="M140.5,87.5h1.5c0.3,0,0.4-0.1,0.4-0.4V76.6c0-0.3-0.1-0.4-0.4-0.4h-1.5c-0.3,0-0.4,0.1-0.4,0.4v10.5
		C140.1,87.4,140.2,87.5,140.5,87.5z"/>
	<path d="M145.6,87.5c0.3,0,0.4-0.2,0.5-0.4l0.6-2.6h3.3l0.6,2.6c0.1,0.3,0.2,0.4,0.5,0.4h1.3c0.3,0,0.5-0.1,0.5-0.4
		c0-0.1,0-0.2-0.1-0.4l-2.5-9.8c-0.1-0.4-0.3-0.7-0.8-0.7h-2.2c-0.4,0-0.6,0.3-0.7,0.7l-2.5,9.8c0,0.2-0.1,0.3-0.1,0.4
		c0,0.3,0.2,0.4,0.5,0.4H145.6z M147.3,81.5L148,78h0.5l0.7,3.5l0.4,1.4h-2.7L147.3,81.5z"/>
	<path d="M162.8,76.2h-1.4c-0.3,0-0.4,0.1-0.4,0.4v8.3H161l-0.9-2.5l-2.9-5.8c-0.1-0.2-0.3-0.3-0.5-0.3h-2.1c-0.3,0-0.4,0.1-0.4,0.4
		v10.5c0,0.3,0.1,0.4,0.4,0.4h1.4c0.3,0,0.4-0.1,0.4-0.4v-8.3h0.1l0.9,2.5l2.9,5.8c0.1,0.2,0.3,0.3,0.5,0.3h2.1
		c0.3,0,0.4-0.1,0.4-0.4V76.6C163.2,76.3,163.1,76.2,162.8,76.2z"/>
	<path d="M83.8,93.1h1c0.3,0,0.4-0.1,0.4-0.4v-1c0-0.3-0.1-0.4-0.4-0.4h-2c-2.1,0-3.7,2-3.7,4.1v3.2c0,2.1,1.7,4,3.7,4H85
		c0.3,0,0.4-0.1,0.4-0.4v-1c0-0.3-0.1-0.4-0.4-0.4h-1.2c-1.5,0-2.4-1-2.4-2.3v-3.2C81.4,94,82.3,93.1,83.8,93.1z"/>
	<path d="M93.2,93.1c0.3,0,0.4-0.1,0.4-0.4v-1c0-0.3-0.1-0.4-0.4-0.4h-5.6c-0.3,0-0.4,0.1-0.4,0.4v10.5c0,0.3,0.1,0.4,0.4,0.4h5.6
		c0.3,0,0.4-0.1,0.4-0.4v-1c0-0.3-0.1-0.4-0.4-0.4h-3.7v-3.2h3.3c0.3,0,0.4-0.1,0.4-0.4v-1c0-0.3-0.1-0.4-0.4-0.4h-3.3v-2.7H93.2z"
		/>
	<path d="M97.4,102.2v-8.3h0.1l0.9,2.5l2.9,5.8c0.1,0.2,0.3,0.3,0.5,0.3h2.1c0.3,0,0.4-0.1,0.4-0.4V91.7c0-0.3-0.1-0.4-0.4-0.4h-1.4
		c-0.3,0-0.4,0.1-0.4,0.4v8.3H102l-0.9-2.5l-2.9-5.8c-0.1-0.2-0.3-0.3-0.5-0.3h-2.1c-0.3,0-0.4,0.1-0.4,0.4v10.5
		c0,0.3,0.1,0.4,0.4,0.4H97C97.3,102.6,97.4,102.5,97.4,102.2z"/>
	<path d="M108.4,102.6h1.5c0.3,0,0.4-0.1,0.4-0.4v-9.1h2.1c0.3,0,0.4-0.1,0.4-0.4v-1c0-0.3-0.1-0.4-0.4-0.4h-6.5
		c-0.3,0-0.4,0.1-0.4,0.4v1c0,0.3,0.1,0.4,0.4,0.4h2.1v9.1C108,102.5,108.1,102.6,108.4,102.6z"/>
	<path d="M114.7,102.6h1.5c0.3,0,0.4-0.1,0.4-0.4v-4.5h1.1l2.1,4.5c0.1,0.2,0.2,0.3,0.5,0.3h1.3c0.3,0,0.5-0.2,0.5-0.5
		c0-0.2-0.1-0.5-0.2-0.6l-1.5-2.9l-1.1-1v0l0.1,0c1.3-0.1,2.3-1.4,2.3-3.2c0-1.9-1.4-3.1-3.1-3.1h-4c-0.3,0-0.4,0.1-0.4,0.4v10.5
		C114.3,102.5,114.4,102.6,114.7,102.6z M116.5,93h1.5c1,0,1.4,0.6,1.4,1.5c0,0.9-0.2,1.7-1.3,1.7h-1.7V93z"/>
	<path d="M130.2,101.2c0-0.3-0.1-0.4-0.4-0.4h-3.7v-3.2h3.3c0.3,0,0.4-0.1,0.4-0.4v-1c0-0.3-0.1-0.4-0.4-0.4h-3.3v-2.7h3.7
		c0.3,0,0.4-0.1,0.4-0.4v-1c0-0.3-0.1-0.4-0.4-0.4h-5.6c-0.3,0-0.4,0.1-0.4,0.4v10.5c0,0.3,0.1,0.4,0.4,0.4h5.6
		c0.3,0,0.4-0.1,0.4-0.4V101.2z"/>
	<path d="M136.8,91.3c-0.3,0-0.4,0.1-0.4,0.4v10.5c0,0.3,0.1,0.4,0.4,0.4h1.5c0.3,0,0.4-0.1,0.4-0.4v-4.6h3.3c0.3,0,0.4-0.1,0.4-0.4
		v-1c0-0.3-0.1-0.4-0.4-0.4h-3.3v-2.7h3.7c0.3,0,0.4-0.1,0.4-0.4v-1c0-0.3-0.1-0.4-0.4-0.4H136.8z"/>
	<path d="M147.3,102.6h1.4c2.1,0,3.3-1.6,3.3-3.5v-4.4c0-1.9-1.2-3.5-3.3-3.5h-1.4c-2.1,0-3.3,1.6-3.3,3.5v4.4
		C144,101,145.2,102.6,147.3,102.6z M146.3,94.8c0-1.2,0.7-1.9,1.7-1.9c1,0,1.7,0.7,1.7,1.9V99c0,1.2-0.7,1.9-1.7,1.9
		c-1,0-1.7-0.7-1.7-1.9V94.8z"/>
	<path d="M156.1,102.2v-4.5h1.1l2.1,4.5c0.1,0.2,0.2,0.3,0.5,0.3h1.3c0.3,0,0.5-0.2,0.5-0.5c0-0.2-0.1-0.5-0.2-0.6l-1.5-2.9l-1.1-1
		v0l0.1,0c1.3-0.1,2.3-1.4,2.3-3.2c0-1.9-1.4-3.1-3.1-3.1h-4c-0.3,0-0.4,0.1-0.4,0.4v10.5c0,0.3,0.1,0.4,0.4,0.4h1.5
		C156,102.6,156.1,102.5,156.1,102.2z M156.1,93h1.5c1,0,1.4,0.6,1.4,1.5c0,0.9-0.2,1.7-1.3,1.7h-1.7V93z"/>
	<path d="M85.9,107.8v-1c0-0.3-0.1-0.4-0.4-0.4H79c-0.3,0-0.4,0.1-0.4,0.4v1c0,0.3,0.1,0.4,0.4,0.4h2.1v9.1c0,0.3,0.1,0.4,0.4,0.4
		H83c0.3,0,0.4-0.1,0.4-0.4v-9.1h2.1C85.8,108.2,85.9,108.1,85.9,107.8z"/>
	<path d="M93,117.3c0,0.3,0.1,0.4,0.4,0.4h1.5c0.3,0,0.4-0.1,0.4-0.4v-10.5c0-0.3-0.1-0.4-0.4-0.4h-1.5c-0.3,0-0.4,0.1-0.4,0.4v4
		h-3.3v-4c0-0.3-0.1-0.4-0.4-0.4h-1.5c-0.3,0-0.4,0.1-0.4,0.4v10.5c0,0.3,0.1,0.4,0.4,0.4h1.5c0.3,0,0.4-0.1,0.4-0.4v-4.7H93V117.3
		L93,117.3z"/>
	<path d="M103.2,117.7c0.3,0,0.4-0.1,0.4-0.4v-1c0-0.3-0.1-0.4-0.4-0.4h-3.7v-3.2h3.3c0.3,0,0.4-0.1,0.4-0.4v-1
		c0-0.3-0.1-0.4-0.4-0.4h-3.3v-2.7h3.7c0.3,0,0.4-0.1,0.4-0.4v-1c0-0.3-0.1-0.4-0.4-0.4h-5.6c-0.3,0-0.4,0.1-0.4,0.4v10.5
		c0,0.3,0.1,0.4,0.4,0.4H103.2z"/>
	<path d="M117.5,108.8l-0.1,2.9v5.6c0,0.3,0.1,0.4,0.4,0.4h1.4c0.3,0,0.4-0.1,0.4-0.4v-10.5c0-0.3-0.1-0.4-0.4-0.4H117
		c-0.3,0-0.5,0.2-0.6,0.4l-1.6,3.9l-0.5,1.6h-0.1l-0.5-1.6l-1.6-3.9c-0.1-0.3-0.3-0.4-0.6-0.4h-2.2c-0.3,0-0.4,0.1-0.4,0.4v10.5
		c0,0.3,0.1,0.4,0.4,0.4h1.4c0.3,0,0.4-0.1,0.4-0.4v-5.6l-0.1-2.9h0.1l0.9,2.5l1.2,2.8c0.1,0.2,0.2,0.4,0.5,0.4h1.1
		c0.3,0,0.4-0.2,0.5-0.4l1.2-2.8L117.5,108.8L117.5,108.8z"/>
	<path d="M126,106.4h-1.4c-2.1,0-3.3,1.6-3.3,3.5v4.4c0,1.9,1.2,3.5,3.3,3.5h1.4c2.1,0,3.3-1.6,3.3-3.5v-4.4
		C129.3,108,128,106.4,126,106.4z M127,114.2c0,1.2-0.7,1.9-1.7,1.9c-1,0-1.7-0.7-1.7-1.9v-4.2c0-1.2,0.7-1.9,1.7-1.9
		c1,0,1.7,0.7,1.7,1.9V114.2z"/>
	<path d="M138.7,106.4h-1.4c-0.3,0-0.4,0.2-0.5,0.4l-1.7,6.4l-0.4,2.5h-0.1l-0.4-2.5l-1.7-6.4c-0.1-0.3-0.2-0.4-0.5-0.4h-1.4
		c-0.3,0-0.5,0.1-0.5,0.4c0,0.1,0,0.2,0.1,0.4l2.9,9.9c0.1,0.3,0.2,0.6,0.6,0.6h1.9c0.4,0,0.5-0.3,0.6-0.6l2.9-9.9
		c0-0.2,0.1-0.2,0.1-0.4C139.2,106.5,139,106.4,138.7,106.4z"/>
	<path d="M142.4,106.4h-1.5c-0.3,0-0.4,0.1-0.4,0.4v10.5c0,0.3,0.1,0.4,0.4,0.4h1.5c0.3,0,0.4-0.1,0.4-0.4v-10.5
		C142.8,106.5,142.7,106.4,142.4,106.4z"/>
	<path d="M153.2,106.4h-1.4c-0.3,0-0.4,0.1-0.4,0.4v8.3h-0.1l-0.9-2.5l-2.9-5.8c-0.1-0.2-0.3-0.3-0.5-0.3H145
		c-0.3,0-0.4,0.1-0.4,0.4v10.5c0,0.3,0.1,0.4,0.4,0.4h1.4c0.3,0,0.4-0.1,0.4-0.4V109h0.1l0.9,2.5l2.9,5.8c0.1,0.2,0.3,0.3,0.5,0.3
		h2.1c0.3,0,0.4-0.1,0.4-0.4v-10.5C153.6,106.5,153.5,106.4,153.2,106.4z"/>
	<path d="M162.8,111.2h-3.1c-0.3,0-0.4,0.1-0.4,0.4v1c0,0.3,0.1,0.4,0.4,0.4h1.2v2.9c-0.4,0.1-1,0.1-1.4,0.1c-1.2,0-1.9-0.6-1.9-1.9
		v-3.7c0-1.4,0.8-2.3,2.3-2.3h2.6c0.3,0,0.4-0.1,0.4-0.4v-1c0-0.3-0.1-0.4-0.4-0.4H159c-2.1,0-3.7,2-3.7,4.1v3.7
		c0,1.8,1.4,3.5,3.2,3.5h3.5c0.8,0,1.1-0.4,1.1-1.1v-5C163.1,111.3,163,111.2,162.8,111.2z"/>
	<path d="M82.7,121.5h-1.5c-0.3,0-0.4,0.1-0.4,0.4v10.5c0,0.3,0.1,0.4,0.4,0.4h1.5c0.3,0,0.4-0.1,0.4-0.4v-10.5
		C83.1,121.6,83,121.5,82.7,121.5z"/>
	<path d="M95.5,121.5h-2.2c-0.3,0-0.5,0.2-0.6,0.4l-1.6,3.9l-0.5,1.6h-0.1l-0.5-1.6l-1.6-3.9c-0.1-0.3-0.3-0.4-0.6-0.4h-2.2
		c-0.3,0-0.4,0.1-0.4,0.4v10.5c0,0.3,0.1,0.4,0.4,0.4h1.4c0.3,0,0.4-0.1,0.4-0.4v-5.6l-0.1-2.9h0.1l0.9,2.5l1.2,2.8
		c0.1,0.2,0.2,0.4,0.5,0.4h1.1c0.3,0,0.4-0.2,0.5-0.4l1.2-2.8l0.9-2.5h0.1l-0.1,2.9v5.6c0,0.3,0.1,0.4,0.4,0.4h1.4
		c0.3,0,0.4-0.1,0.4-0.4v-10.5C95.9,121.6,95.8,121.5,95.5,121.5z"/>
	<path d="M103.7,122.2c-0.1-0.4-0.3-0.7-0.8-0.7h-2.2c-0.4,0-0.6,0.3-0.7,0.7l-2.5,9.8c0,0.2-0.1,0.3-0.1,0.4c0,0.3,0.2,0.4,0.5,0.4
		h1.3c0.3,0,0.4-0.2,0.5-0.4l0.6-2.6h3.3l0.6,2.6c0.1,0.3,0.2,0.4,0.5,0.4h1.3c0.3,0,0.5-0.1,0.5-0.4c0-0.1,0-0.2-0.1-0.4
		L103.7,122.2z M100.5,128.2l0.4-1.4l0.7-3.5h0.5l0.7,3.5l0.4,1.4H100.5z"/>
	<path d="M114.8,126.3h-3.1c-0.3,0-0.4,0.1-0.4,0.4v1c0,0.3,0.1,0.4,0.4,0.4h1.2v2.9c-0.4,0.1-1,0.1-1.4,0.1c-1.2,0-1.9-0.6-1.9-1.9
		v-3.7c0-1.4,0.8-2.3,2.3-2.3h2.6c0.3,0,0.4-0.1,0.4-0.4v-1c0-0.3-0.1-0.4-0.4-0.4h-3.4c-2.1,0-3.7,2-3.7,4.1v3.7
		c0,1.8,1.4,3.5,3.2,3.5h3.5c0.8,0,1.1-0.4,1.1-1.1v-5C115.2,126.4,115.1,126.3,114.8,126.3z"/>
	<path d="M123.3,131h-3.7v-3.2h3.3c0.3,0,0.4-0.1,0.4-0.4v-1c0-0.3-0.1-0.4-0.4-0.4h-3.3v-2.7h3.7c0.3,0,0.4-0.1,0.4-0.4v-1
		c0-0.3-0.1-0.4-0.4-0.4h-5.6c-0.3,0-0.4,0.1-0.4,0.4v10.5c0,0.3,0.1,0.4,0.4,0.4h5.6c0.3,0,0.4-0.1,0.4-0.4v-1
		C123.6,131.1,123.5,131,123.3,131z"/>
	<path d="M56,89.4c0-0.5-0.2-0.9-0.5-1.3L44.1,76.7c-0.4-0.4-0.8-0.6-1.2-0.6H39c-1,0-1.7,0.4-1.7,1.3c0,0.5,0.3,1,0.7,1.4
		l10.3,10.3v0.5L38,99.9c-0.4,0.4-0.7,0.9-0.7,1.4c0,0.9,0.7,1.3,1.7,1.3h3.9c0.4,0,0.8-0.1,1.2-0.6l11.4-11.4
		C55.8,90.3,56,89.8,56,89.4z"/>
	<path d="M60.3,76.7c-0.4-0.4-0.8-0.6-1.2-0.6h-3.9c-1,0-1.7,0.4-1.7,1.3c0,0.5,0.3,1,0.7,1.4l10.3,10.3v0.5L54.2,99.9
		c-0.4,0.4-0.7,0.9-0.7,1.4c0,0.9,0.7,1.3,1.7,1.3h3.9c0.4,0,0.8-0.1,1.2-0.6l11.4-11.4c0.3-0.3,0.5-0.8,0.5-1.2
		c0-0.5-0.2-0.9-0.5-1.3L60.3,76.7z"/>
</g>
<path d="M147.2-226.1c-1.6,0-2.2-0.6-2.2-2.2v-4.3c0-1.6,0.6-2.2,2.2-2.2h13.9c1.5,0,2.1,0.6,2.1,2.2v44.1c0,1.6-0.6,2.2-2.1,2.2
	h-7.9c-1.6,0-2.2-0.6-2.2-2.2v-37.6H147.2z M79.2-232.6c0-1.6,0.6-2.2,2.2-2.2h6.7c1.6,0,2.2,0.6,2.2,2.2v5.1h0.4
	c2.6-4.7,6.4-7.4,12.5-7.4c5.1,0,8.8,3.4,9.5,7.4h0.4c3.9-6.6,8.4-7.4,14.4-7.4c7.7,0,12.6,5.5,12.6,16.4v30
	c-0.1,1.6-0.7,2.2-2.3,2.2H130c-1.6,0-2.2-0.6-2.2-2.2v-28.7c0-5.4-1-8.1-5.4-8.1c-5.3,0-6.6,7.7-6.6,7.7v29.2
	c0,1.6-0.6,2.2-2.2,2.2h-7.8c-1.6,0-2.2-0.6-2.2-2.2v-28.7c0-5.4-1-8.1-5.4-8.1c-5.3,0-6.8,7.7-6.8,7.7v29.2c0,1.6-0.6,2.2-2.2,2.2
	h-7.8c-1.6,0-2.2-0.6-2.2-2.2V-232.6z M25.3-208.8h-6.6c-3.7,0-6.7,3-6.7,6.8c0,4,2.2,6.7,5.8,6.7c6.2,0,7.5-6,7.5-6V-208.8z
	 M37.5-188.5c0,1.6-0.6,2.2-2.2,2.2H29c-1.5,0-2.1-0.6-2.1-2.2v-4.3h-0.4c-2.4,3.2-5.2,6.6-12.8,6.6c-7.2,0-13.2-6-13.2-14.9
	c0-8.2,6.7-14.9,14.9-14.9h10.1v-2.6c0-5.3-2.9-7.2-8.4-7.2H7.7c-1.6,0-2.2-0.6-2.2-2.2v-4.7c0-1.5,0.6-2.1,2.2-2.1h14.5
	c8.5,0,15.3,6.9,15.3,15.3V-188.5z"/>
<path d="M71.1-186.2H60.9c-9.8,0-17.5-9.1-17.5-17.6v-13.5c0-8.5,7.7-17.6,17.5-17.6h10.3c1.5,0,2.1,0.6,2.1,2.1v5.2
	c0,1.5-0.6,2.1-2.1,2.1h-7c-5.5,0-8.6,3.7-8.6,9v11.7c0,5.3,3,9,8.6,9h7c1.5,0,2.1,0.6,2.1,2.1v5.2
	C73.3-186.9,72.7-186.2,71.1-186.2"/>
<path d="M150.6-249.1c0-1.6,0.6-2.2,2.2-2.2h8.7c1.5,0,2.1,0.6,2.1,2.2v5.5c0,1.6-0.6,2.2-2.1,2.2h-8.7c-1.6,0-2.2-0.6-2.2-2.2
	V-249.1z"/>
<path d="M84.3-170.1l-0.7-3.5H83l-0.7,3.5l-0.4,1.4h2.7L84.3-170.1z M84.9-167.1h-3.3l-0.6,2.6c-0.1,0.3-0.2,0.4-0.5,0.4h-1.3
	c-0.3,0-0.5-0.1-0.5-0.4c0-0.1,0-0.2,0.1-0.4l2.5-9.8c0.1-0.4,0.3-0.7,0.7-0.7h2.2c0.5,0,0.6,0.3,0.8,0.7l2.5,9.8
	c0,0.2,0.1,0.3,0.1,0.4c0,0.3-0.2,0.4-0.5,0.4H86c-0.3,0-0.4-0.2-0.5-0.4L84.9-167.1z"/>
<path d="M92.3-164c-2,0-3.4-1.7-3.4-3.5v-7.4c0-0.3,0.1-0.4,0.4-0.4h1.5c0.3,0,0.4,0.1,0.4,0.4v7.4c0,1.1,0.4,1.7,1.6,1.7
	c1.2,0,1.6-0.6,1.6-1.7v-7.4c0-0.3,0.1-0.4,0.4-0.4h1.5c0.3,0,0.4,0.1,0.4,0.4v7.4c0,1.8-1.5,3.5-3.4,3.5H92.3z"/>
<path d="M101.4-173.6c-0.5,0-0.9,0.4-0.9,0.9c0,0.3,0.1,0.6,0.3,0.7l3.3,3c0.4,0.4,0.7,1.3,0.7,1.9c0,1.6-1.3,2.9-2.9,2.9h-3.2
	c-0.3,0-0.4-0.1-0.4-0.4v-1c0-0.3,0.1-0.4,0.4-0.4h2.9c0.5,0,1-0.4,1-1c0-0.3-0.1-0.6-0.3-0.8l-3.1-2.8c-0.5-0.5-0.8-1.2-0.8-2
	c0-1.6,1.3-2.9,2.9-2.9h2.6c0.3,0,0.4,0.1,0.4,0.4v1c0,0.3-0.1,0.4-0.4,0.4H101.4z"/>
<path d="M112.3-175.3c0.3,0,0.4,0.1,0.4,0.4v1c0,0.3-0.1,0.4-0.4,0.4h-2.1v9.1c0,0.3-0.1,0.4-0.4,0.4h-1.5c-0.3,0-0.4-0.1-0.4-0.4
	v-9.1h-2.1c-0.3,0-0.4-0.1-0.4-0.4v-1c0-0.3,0.1-0.4,0.4-0.4H112.3z"/>
<path d="M119.2-172.1c0-1-0.4-1.5-1.4-1.5h-1.5v3.2h1.7C119-170.4,119.2-171.2,119.2-172.1 M114-174.9c0-0.3,0.1-0.4,0.4-0.4h4
	c1.7,0,3.1,1.2,3.1,3.1c0,1.8-1,3.1-2.3,3.2l-0.1,0v0l1.1,1l1.5,2.9c0.1,0.1,0.2,0.3,0.2,0.6c0,0.2-0.2,0.5-0.5,0.5H120
	c-0.2,0-0.4-0.1-0.5-0.3l-2.1-4.5h-1.1v4.5c0,0.3-0.1,0.4-0.4,0.4h-1.5c-0.3,0-0.4-0.1-0.4-0.4V-174.9z"/>
<path d="M128-170.1l-0.7-3.5h-0.5l-0.7,3.5l-0.4,1.4h2.7L128-170.1z M128.6-167.1h-3.3l-0.6,2.6c-0.1,0.3-0.2,0.4-0.5,0.4H123
	c-0.3,0-0.5-0.1-0.5-0.4c0-0.1,0-0.2,0.1-0.4l2.5-9.8c0.1-0.4,0.3-0.7,0.7-0.7h2.2c0.5,0,0.6,0.3,0.8,0.7l2.5,9.8
	c0,0.2,0.1,0.3,0.1,0.4c0,0.3-0.2,0.4-0.5,0.4h-1.3c-0.3,0-0.4-0.2-0.5-0.4L128.6-167.1z"/>
<path d="M138.3-165.8c0.3,0,0.4,0.1,0.4,0.4v1c0,0.3-0.1,0.4-0.4,0.4h-5.1c-0.3,0-0.4-0.1-0.4-0.4V-175c0-0.3,0.1-0.4,0.4-0.4h1.5
	c0.3,0,0.4,0.1,0.4,0.4v9.1H138.3z"/>
<path d="M142.4-164.4c0,0.3-0.1,0.4-0.4,0.4h-1.5c-0.3,0-0.4-0.1-0.4-0.4v-10.5c0-0.3,0.1-0.4,0.4-0.4h1.5c0.3,0,0.4,0.1,0.4,0.4
	V-164.4z"/>
<path d="M149.3-170.1l-0.7-3.5H148l-0.7,3.5l-0.4,1.4h2.7L149.3-170.1z M149.9-167.1h-3.3l-0.6,2.6c-0.1,0.3-0.2,0.4-0.5,0.4h-1.3
	c-0.3,0-0.5-0.1-0.5-0.4c0-0.1,0-0.2,0.1-0.4l2.5-9.8c0.1-0.4,0.3-0.7,0.7-0.7h2.2c0.5,0,0.6,0.3,0.8,0.7l2.5,9.8
	c0,0.2,0.1,0.3,0.1,0.4c0,0.3-0.2,0.4-0.5,0.4H151c-0.3,0-0.4-0.2-0.5-0.4L149.9-167.1z"/>
<path d="M160.7-164c-0.3,0-0.4-0.1-0.5-0.3l-2.9-5.8l-0.9-2.5h-0.1v8.3c0,0.3-0.1,0.4-0.4,0.4h-1.4c-0.3,0-0.4-0.1-0.4-0.4V-175
	c0-0.3,0.1-0.4,0.4-0.4h2.1c0.3,0,0.4,0.1,0.5,0.3l2.9,5.8l0.9,2.5h0.1v-8.3c0-0.3,0.1-0.4,0.4-0.4h1.4c0.3,0,0.4,0.1,0.4,0.4v10.5
	c0,0.3-0.1,0.4-0.4,0.4H160.7z"/>
<path d="M85-150.7c0.3,0,0.4,0.1,0.4,0.4v1c0,0.3-0.1,0.4-0.4,0.4h-2.1c-2.1,0-3.7-2-3.7-4v-3.2c0-2.1,1.7-4.1,3.7-4.1h2
	c0.3,0,0.4,0.1,0.4,0.4v1c0,0.3-0.1,0.4-0.4,0.4h-1c-1.5,0-2.4,1-2.4,2.3v3.2c0,1.3,0.9,2.3,2.4,2.3H85z"/>
<path d="M87.6-148.9c-0.3,0-0.4-0.1-0.4-0.4v-10.5c0-0.3,0.1-0.4,0.4-0.4h5.6c0.3,0,0.4,0.1,0.4,0.4v1c0,0.3-0.1,0.4-0.4,0.4h-3.7
	v2.7h3.3c0.3,0,0.4,0.1,0.4,0.4v1c0,0.3-0.1,0.4-0.4,0.4h-3.3v3.2h3.7c0.3,0,0.4,0.1,0.4,0.4v1c0,0.3-0.1,0.4-0.4,0.4H87.6z"/>
<path d="M101.7-148.9c-0.3,0-0.4-0.1-0.5-0.3l-2.9-5.8l-0.9-2.5h-0.1v8.3c0,0.3-0.1,0.4-0.4,0.4h-1.4c-0.3,0-0.4-0.1-0.4-0.4v-10.5
	c0-0.3,0.1-0.4,0.4-0.4h2.1c0.3,0,0.4,0.1,0.5,0.3l2.9,5.8l0.9,2.5h0.1v-8.3c0-0.3,0.1-0.4,0.4-0.4h1.4c0.3,0,0.4,0.1,0.4,0.4v10.5
	c0,0.3-0.1,0.4-0.4,0.4H101.7z"/>
<path d="M112.3-160.2c0.3,0,0.4,0.1,0.4,0.4v1c0,0.3-0.1,0.4-0.4,0.4h-2.1v9.1c0,0.3-0.1,0.4-0.4,0.4h-1.5c-0.3,0-0.4-0.1-0.4-0.4
	v-9.1h-2.1c-0.3,0-0.4-0.1-0.4-0.4v-1c0-0.3,0.1-0.4,0.4-0.4H112.3z"/>
<path d="M119.5-157c0-1-0.4-1.5-1.4-1.5h-1.5v3.2h1.7C119.3-155.3,119.5-156.1,119.5-157 M114.3-159.8c0-0.3,0.1-0.4,0.4-0.4h4
	c1.7,0,3.1,1.2,3.1,3.1c0,1.8-1,3.1-2.3,3.2l-0.1,0v0l1.1,1l1.5,2.9c0.1,0.1,0.2,0.3,0.2,0.6c0,0.2-0.2,0.5-0.5,0.5h-1.3
	c-0.2,0-0.4-0.1-0.5-0.3l-2.1-4.5h-1.1v4.5c0,0.3-0.1,0.4-0.4,0.4h-1.5c-0.3,0-0.4-0.1-0.4-0.4V-159.8z"/>
<path d="M124.2-148.9c-0.3,0-0.4-0.1-0.4-0.4v-10.5c0-0.3,0.1-0.4,0.4-0.4h5.6c0.3,0,0.4,0.1,0.4,0.4v1c0,0.3-0.1,0.4-0.4,0.4h-3.7
	v2.7h3.3c0.3,0,0.4,0.1,0.4,0.4v1c0,0.3-0.1,0.4-0.4,0.4h-3.3v3.2h3.7c0.3,0,0.4,0.1,0.4,0.4v1c0,0.3-0.1,0.4-0.4,0.4H124.2z"/>
<path d="M136.8-148.9c-0.3,0-0.4-0.1-0.4-0.4v-10.5c0-0.3,0.1-0.4,0.4-0.4h5.6c0.3,0,0.4,0.1,0.4,0.4v1c0,0.3-0.1,0.4-0.4,0.4h-3.7
	v2.7h3.3c0.3,0,0.4,0.1,0.4,0.4v1c0,0.3-0.1,0.4-0.4,0.4h-3.3v4.6c0,0.3-0.1,0.4-0.4,0.4H136.8z"/>
<path d="M149.7-156.7c0-1.2-0.7-1.9-1.7-1.9c-1,0-1.7,0.7-1.7,1.9v4.2c0,1.3,0.7,1.9,1.7,1.9c1,0,1.7-0.7,1.7-1.9V-156.7z
	 M148.7-148.9h-1.4c-2.1,0-3.3-1.6-3.3-3.5v-4.4c0-1.9,1.2-3.5,3.3-3.5h1.4c2.1,0,3.3,1.6,3.3,3.5v4.4
	C152-150.5,150.8-148.9,148.7-148.9"/>
<path d="M159.1-157c0-1-0.4-1.5-1.4-1.5h-1.5v3.2h1.7C158.9-155.3,159.1-156.1,159.1-157 M153.8-159.8c0-0.3,0.1-0.4,0.4-0.4h4
	c1.7,0,3.1,1.2,3.1,3.1c0,1.8-1,3.1-2.3,3.2l-0.1,0v0l1.1,1l1.5,2.9c0.1,0.1,0.2,0.3,0.2,0.6c0,0.2-0.2,0.5-0.5,0.5h-1.3
	c-0.2,0-0.4-0.1-0.5-0.3l-2.1-4.5h-1.1v4.5c0,0.3-0.1,0.4-0.4,0.4h-1.5c-0.3,0-0.4-0.1-0.4-0.4V-159.8z"/>
<path d="M85.5-145.1c0.3,0,0.4,0.1,0.4,0.4v1c0,0.3-0.1,0.4-0.4,0.4h-2.1v9.1c0,0.3-0.1,0.4-0.4,0.4h-1.5c-0.3,0-0.4-0.1-0.4-0.4
	v-9.1H79c-0.3,0-0.4-0.1-0.4-0.4v-1c0-0.3,0.1-0.4,0.4-0.4H85.5z"/>
<path d="M93-134.2v-4.7h-3.3v4.7c0,0.3-0.1,0.4-0.4,0.4h-1.5c-0.3,0-0.4-0.1-0.4-0.4v-10.5c0-0.3,0.1-0.4,0.4-0.4h1.5
	c0.3,0,0.4,0.1,0.4,0.4v4H93v-4c0-0.3,0.1-0.4,0.4-0.4h1.5c0.3,0,0.4,0.1,0.4,0.4v10.5c0,0.3-0.1,0.4-0.4,0.4h-1.5
	C93.1-133.8,93-133.9,93-134.2L93-134.2z"/>
<path d="M97.6-133.8c-0.3,0-0.4-0.1-0.4-0.4v-10.5c0-0.3,0.1-0.4,0.4-0.4h5.6c0.3,0,0.4,0.1,0.4,0.4v1c0,0.3-0.1,0.4-0.4,0.4h-3.7
	v2.7h3.3c0.3,0,0.4,0.1,0.4,0.4v1c0,0.3-0.1,0.4-0.4,0.4h-3.3v3.2h3.7c0.3,0,0.4,0.1,0.4,0.4v1c0,0.3-0.1,0.4-0.4,0.4H97.6z"/>
<path d="M111.1-139.9v5.6c0,0.3-0.1,0.4-0.4,0.4h-1.4c-0.3,0-0.4-0.1-0.4-0.4v-10.5c0-0.3,0.1-0.4,0.4-0.4h2.2
	c0.3,0,0.5,0.2,0.6,0.4l1.6,3.9l0.5,1.6h0.1l0.5-1.6l1.6-3.9c0.1-0.3,0.3-0.4,0.6-0.4h2.2c0.3,0,0.4,0.1,0.4,0.4v10.5
	c0,0.3-0.1,0.4-0.4,0.4h-1.4c-0.3,0-0.4-0.1-0.4-0.4v-5.6l0.1-2.9h-0.1l-0.9,2.5l-1.2,2.8c-0.1,0.2-0.2,0.4-0.5,0.4h-1.1
	c-0.3,0-0.4-0.2-0.5-0.4l-1.2-2.8l-0.9-2.5h-0.1L111.1-139.9z"/>
<path d="M127-141.6c0-1.2-0.7-1.9-1.7-1.9c-1,0-1.7,0.7-1.7,1.9v4.2c0,1.3,0.7,1.9,1.7,1.9c1,0,1.7-0.7,1.7-1.9V-141.6z M126-133.8
	h-1.4c-2.1,0-3.3-1.6-3.3-3.5v-4.4c0-1.9,1.2-3.5,3.3-3.5h1.4c2.1,0,3.3,1.6,3.3,3.5v4.4C129.3-135.4,128-133.8,126-133.8"/>
<path d="M134.2-138.3l0.4,2.5h0.1l0.4-2.5l1.7-6.4c0.1-0.3,0.2-0.4,0.5-0.4h1.4c0.3,0,0.5,0.1,0.5,0.4c0,0.1,0,0.2-0.1,0.4l-2.9,9.9
	c-0.1,0.3-0.2,0.6-0.6,0.6h-1.9c-0.4,0-0.5-0.3-0.6-0.6l-2.9-9.9c0-0.2-0.1-0.2-0.1-0.4c0-0.3,0.2-0.4,0.5-0.4h1.4
	c0.3,0,0.4,0.2,0.5,0.4L134.2-138.3z"/>
<path d="M142.8-134.2c0,0.3-0.1,0.4-0.4,0.4h-1.5c-0.3,0-0.4-0.1-0.4-0.4v-10.5c0-0.3,0.1-0.4,0.4-0.4h1.5c0.3,0,0.4,0.1,0.4,0.4
	V-134.2z"/>
<path d="M151.1-133.8c-0.3,0-0.4-0.1-0.5-0.3l-2.9-5.8l-0.9-2.5h-0.1v8.3c0,0.3-0.1,0.4-0.4,0.4H145c-0.3,0-0.4-0.1-0.4-0.4v-10.5
	c0-0.3,0.1-0.4,0.4-0.4h2.1c0.3,0,0.4,0.1,0.5,0.3l2.9,5.8l0.9,2.5h0.1v-8.3c0-0.3,0.1-0.4,0.4-0.4h1.4c0.3,0,0.4,0.1,0.4,0.4v10.5
	c0,0.3-0.1,0.4-0.4,0.4H151.1z"/>
<path d="M159.3-139.9c0-0.3,0.1-0.4,0.4-0.4h3.1c0.3,0,0.4,0.1,0.4,0.4v5c0,0.8-0.4,1.1-1.1,1.1h-3.5c-1.8,0-3.2-1.7-3.2-3.5v-3.7
	c0-2.1,1.7-4.1,3.7-4.1h3.4c0.3,0,0.4,0.1,0.4,0.4v1c0,0.3-0.1,0.4-0.4,0.4h-2.6c-1.5,0-2.3,0.8-2.3,2.3v3.7c0,1.2,0.7,1.9,1.9,1.9
	c0.4,0,1,0,1.4-0.1v-2.9h-1.2c-0.3,0-0.4-0.1-0.4-0.4V-139.9z"/>
<path d="M83.1-119.1c0,0.3-0.1,0.4-0.4,0.4h-1.5c-0.3,0-0.4-0.1-0.4-0.4v-10.5c0-0.3,0.1-0.4,0.4-0.4h1.5c0.3,0,0.4,0.1,0.4,0.4
	V-119.1z"/>
<path d="M87.4-124.7v5.6c0,0.3-0.1,0.4-0.4,0.4h-1.4c-0.3,0-0.4-0.1-0.4-0.4v-10.5c0-0.3,0.1-0.4,0.4-0.4h2.2c0.3,0,0.5,0.2,0.6,0.4
	l1.6,3.9l0.5,1.6h0.1l0.5-1.6l1.6-3.9c0.1-0.3,0.3-0.4,0.6-0.4h2.2c0.3,0,0.4,0.1,0.4,0.4v10.5c0,0.3-0.1,0.4-0.4,0.4h-1.4
	c-0.3,0-0.4-0.1-0.4-0.4v-5.6l0.1-2.9h-0.1l-0.9,2.5l-1.2,2.8c-0.1,0.2-0.2,0.4-0.5,0.4h-1.1c-0.3,0-0.4-0.2-0.5-0.4l-1.2-2.8
	l-0.9-2.5h-0.1L87.4-124.7z"/>
<path d="M102.8-124.7l-0.7-3.5h-0.5l-0.7,3.5l-0.4,1.4h2.7L102.8-124.7z M103.5-121.7h-3.3l-0.6,2.6c-0.1,0.3-0.2,0.4-0.5,0.4h-1.3
	c-0.3,0-0.5-0.1-0.5-0.4c0-0.1,0-0.2,0.1-0.4l2.5-9.8c0.1-0.4,0.3-0.7,0.7-0.7h2.2c0.5,0,0.6,0.3,0.8,0.7l2.5,9.8
	c0,0.2,0.1,0.3,0.1,0.4c0,0.3-0.2,0.4-0.5,0.4h-1.3c-0.3,0-0.4-0.2-0.5-0.4L103.5-121.7z"/>
<path d="M111.3-124.8c0-0.3,0.1-0.4,0.4-0.4h3.1c0.3,0,0.4,0.1,0.4,0.4v5c0,0.8-0.4,1.1-1.1,1.1h-3.5c-1.8,0-3.2-1.7-3.2-3.5v-3.7
	c0-2.1,1.7-4.1,3.7-4.1h3.4c0.3,0,0.4,0.1,0.4,0.4v1c0,0.3-0.1,0.4-0.4,0.4h-2.6c-1.5,0-2.3,0.8-2.3,2.3v3.7c0,1.2,0.7,1.9,1.9,1.9
	c0.4,0,1,0,1.4-0.1v-2.9h-1.2c-0.3,0-0.4-0.1-0.4-0.4V-124.8z"/>
<path d="M117.6-118.7c-0.3,0-0.4-0.1-0.4-0.4v-10.5c0-0.3,0.1-0.4,0.4-0.4h5.6c0.3,0,0.4,0.1,0.4,0.4v1c0,0.3-0.1,0.4-0.4,0.4h-3.7
	v2.7h3.3c0.3,0,0.4,0.1,0.4,0.4v1c0,0.3-0.1,0.4-0.4,0.4h-3.3v3.2h3.7c0.3,0,0.4,0.1,0.4,0.4v1c0,0.3-0.1,0.4-0.4,0.4H117.6z"/>
<path d="M55.5-163.3c0.3,0.3,0.5,0.8,0.5,1.3c0,0.4-0.2,0.9-0.5,1.2l-11.4,11.4c-0.4,0.4-0.8,0.6-1.2,0.6H39c-1,0-1.7-0.4-1.7-1.3
	c0-0.5,0.3-1,0.7-1.4l10.3-10.3v-0.5L38-172.7c-0.4-0.4-0.7-0.9-0.7-1.4c0-0.9,0.7-1.3,1.7-1.3h3.9c0.4,0,0.8,0.1,1.2,0.6
	L55.5-163.3z"/>
<path d="M71.7-163.3c0.3,0.3,0.5,0.8,0.5,1.3c0,0.4-0.2,0.9-0.5,1.2l-11.4,11.4c-0.4,0.4-0.8,0.6-1.2,0.6h-3.9c-1,0-1.7-0.4-1.7-1.3
	c0-0.5,0.3-1,0.7-1.4l10.3-10.3v-0.5l-10.3-10.3c-0.4-0.4-0.7-0.9-0.7-1.4c0-0.9,0.7-1.3,1.7-1.3h3.9c0.4,0,0.8,0.1,1.2,0.6
	L71.7-163.3z"/>
<g>
	<path d="M257.2-190.2c1.5,0,2.8-0.4,4.2-1.7l2.5,2c0.3,0.2,0.6,0.5,1,0.8l0.8,0.6c-2.4,2.5-5.2,3.8-8.5,3.8
		c-6.6,0-11.7-5.3-11.7-11.7c0-6.5,5.4-11.7,11.7-11.7c2.7,0,5.2,1,7.6,2.8c-1.4,1.3-2.8,2.4-4.2,3.6c-1.3-0.7-2.3-1-3.3-1
		c-3.3,0-6.3,2.8-6.3,6.2C250.9-193,253.8-190.2,257.2-190.2"/>
	<path d="M275.1-196.9h1c2.4,0,5.2-0.1,5.2-2.8c0-2.8-2-3.6-4.6-3.6c-0.5,0-1.1,0-1.7,0V-196.9z M275.1-185.2h-5.2v-22.7h7.7
		c4.9,0,8.9,3,8.9,8.4c0,2.7-1.5,5.3-4.1,6.1l5.6,8.2h-6l-5.1-7.1h-1.8L275.1-185.2z"/>
	<polygon points="292.2,-185.3 292.2,-207.9 306.6,-207.9 306.6,-202.8 297.2,-202.8 297.2,-199.3 304.5,-199.3 304.5,-194.2 
		297.2,-194.2 297.2,-190.3 306.6,-190.3 306.6,-185.3 	"/>
	<path d="M321.6-200.1h-0.8l-2.2,6.1h5.5L321.6-200.1z M327.1-185.2l-1.7-3.9h-8.2c-0.5,1.3-1,2.5-1.4,3.9h-5.2l8.4-22.6h4l9.8,22.6
		H327.1z"/>
	<polygon points="344.5,-202.8 344.5,-185.2 339.3,-185.2 339.3,-202.8 333.5,-202.8 333.5,-207.9 349.8,-207.9 349.8,-202.8 	"/>
	<rect x="355.1" y="-207.9" width="5.1" height="22.6"/>
	<polygon points="375.2,-185.3 364.9,-207.9 370.6,-207.9 376.4,-194.6 382.5,-208 388,-208 377.7,-185.3 	"/>
	<polygon points="390.8,-185.3 390.8,-207.9 405.2,-207.9 405.2,-202.8 395.9,-202.8 395.9,-199.3 403.2,-199.3 403.2,-194.2 
		395.9,-194.2 395.9,-190.3 405.2,-190.3 405.2,-185.3 	"/>
	<polygon points="255.6,-157.4 248.3,-175.2 244.6,-175.2 254.2,-152.7 257,-152.7 266.6,-175.2 263,-175.2 	"/>
	<rect x="271.2" y="-175.2" width="3.3" height="22.4"/>
	<path d="M298.1-158.6c-1.9,1.8-3.7,3-6.6,3c-4.4,0-7.9-3.7-7.9-8.5c0-4.8,3.4-8.4,7.9-8.4c2.4,0,4.4,0.8,6.5,2.8l0.3,0.3l2.3-2.4
		l-0.3-0.3c-1.9-1.8-4.3-3.5-8.7-3.5c-6.3,0-11.3,5.1-11.3,11.6c0,6.6,4.8,11.5,11.2,11.5c4.5,0,7-2,8.9-3.9l0.3-0.3l-2.2-2.2
		L298.1-158.6z"/>
	<polygon points="303.5,-172.1 310.7,-172.1 310.7,-152.9 314,-152.9 314,-172.1 321.2,-172.1 321.2,-175.2 303.5,-175.2 	"/>
	<path d="M335.1-172.5c4.6,0,8,3.6,8,8.5c0,4.8-3.4,8.4-8,8.4c-4.6,0-8-3.6-8-8.5C327.1-168.9,330.5-172.5,335.1-172.5 M335.1-175.6
		c-6.4,0-11.4,5.1-11.4,11.6c0,6.6,4.9,11.5,11.4,11.5c6.4,0,11.4-5.1,11.4-11.6C346.5-170.7,341.6-175.6,335.1-175.6"/>
	<path d="M355.3-172.1h6.2c3.2,0,5.1,1.4,5.1,3.9c0,2.4-2,4-5.1,4h-6.2V-172.1z M369.9-168.4c0-1.8-0.6-3.4-1.8-4.6
		c-1.5-1.5-3.8-2.3-6.4-2.3H352v22.4h3.3v-8.4h5.5l6.2,8.4h4.1l-6.7-8.9C367.8-162.7,369.9-165.1,369.9-168.4"/>
	<rect x="375.6" y="-175.2" width="3.3" height="22.4"/>
	<path d="M399.3-161.6h-8.4l4.2-9.4L399.3-161.6z M396.5-175.4h-2.8l-10.2,22.5h3.5l2.6-5.7h11.1l2.5,5.7h3.6L396.5-175.4z"/>
</g>
<g>
	<g>
		<path d="M578-154.4c-4,0-6.6,3.3-6.6,8.3c0,5,2.7,8.3,6.6,8.3c4,0,6.7-3.3,6.7-8.4C584.7-151.2,582.1-154.4,578-154.4z
			 M534.6-173.2c1.3,0,2.1-0.9,2.1-2.4c0-1.4-0.8-2.3-2.1-2.3c-1.3,0-2.1,0.9-2.1,2.4C532.6-174.1,533.4-173.2,534.6-173.2z
			 M499-174.3c0,0.7,0.5,1.1,1.4,1.1c1.2,0,1.8-0.7,1.8-1.9c0-0.1,0-0.3,0-0.4c-0.5,0-0.7-0.1-1-0.1
			C499.7-175.5,499-175.1,499-174.3z M513.4-177.8c-0.8,0-1.4,0.4-1.7,1.2h3.3C514.8-177.5,514.3-177.8,513.4-177.8z M549.4-177.8
			c-0.8,0-1.4,0.4-1.7,1.2h3.3C550.7-177.5,550.2-177.8,549.4-177.8z M582.3-177.8c-0.8,0-1.4,0.4-1.7,1.2h3.3
			C583.7-177.5,583.2-177.8,582.3-177.8z M641.3-223.3L611.6-163l-29.2-60.3H480.7v93.6H644v-93.6H641.3z M594.4-179h0.5v-1.6
			l1.7-0.5v2.1h0.6c0.1,0,0.2,0,0.3,0c0.2,0,0.3,0,0.4,0c0.2,0,0.3-0.1,0.6-0.1l-0.8,1.5h-1.1v3.5c0,0.7,0.1,0.9,0.6,0.9
			c0.5,0,0.9-0.1,1.6-0.3l-0.5,1.6l-0.4,0.1c-0.6,0.1-0.8,0.1-1.1,0.1c-0.6,0-1.1-0.1-1.4-0.4c-0.4-0.3-0.5-0.8-0.5-1.9v-3.5h-0.1
			c-0.3,0-0.8,0.1-1.2,0.2L594.4-179z M582.4-179.2c1.4,0,2.5,0.7,3.1,1.9c0.2,0.5,0.3,1,0.4,1.9h-5.4c0,0.4,0.1,0.5,0.2,0.9
			c0.3,0.8,1.1,1.3,2.2,1.3c0.5,0,1.1-0.1,1.6-0.4c0.4-0.1,0.6-0.3,1.2-0.6l-0.4,2.1c-0.2,0-0.4,0.1-0.5,0.1
			c-0.6,0.1-1.3,0.2-1.8,0.2c-2.6,0-4.3-1.4-4.3-3.6C578.7-177.6,580.3-179.2,582.4-179.2z M566.6-178.6l2.1-0.6v0.6
			c0.6-0.4,1.1-0.6,1.8-0.6c1,0,1.6,0.3,2.2,1c0.3-0.3,0.5-0.4,0.7-0.5c0.5-0.3,1.1-0.4,1.7-0.4c0.9,0,1.8,0.3,2.2,0.9
			c0.4,0.5,0.5,1.1,0.5,2.6v2.4c0,0.6,0.1,0.9,0.5,1.1h-2.7c0.4-0.2,0.5-0.5,0.5-1.1v-3.3c0-0.6-0.1-0.8-0.3-1
			c-0.2-0.3-0.6-0.4-1-0.4c-0.9,0-1.6,0.6-1.6,1.5v3.2c0,0.6,0.1,0.9,0.5,1.1H571c0.4-0.2,0.5-0.5,0.5-1.1v-3.3c0-0.6-0.1-0.8-0.3-1
			c-0.2-0.3-0.6-0.4-1-0.4c-0.9,0-1.6,0.6-1.6,1.5v3.2c0,0.6,0.1,0.9,0.5,1.1h-2.7c0.4-0.2,0.5-0.5,0.5-1.1v-4.4
			C567-178.2,566.9-178.3,566.6-178.6z M558.7-178.6l2.1-0.6v0.6c0.7-0.4,1.1-0.6,1.8-0.6c1,0,1.8,0.3,2.3,0.9
			c0.4,0.5,0.5,1.1,0.5,2.6v2.4c0,0.6,0.1,0.9,0.5,1.1h-2.7c0.4-0.2,0.5-0.5,0.5-1.1v-3.3c0-0.6-0.1-0.8-0.3-1
			c-0.2-0.3-0.6-0.4-1.1-0.4c-1,0-1.6,0.6-1.6,1.5v3.2c0,0.6,0.1,0.9,0.5,1.1h-2.7c0.4-0.2,0.5-0.5,0.5-1.1v-4.4
			C559-178.2,559-178.3,558.7-178.6z M553.6-178.6l2.1-0.6v0.7c0.5-0.4,1-0.6,1.8-0.6c0.3,0,0.4,0,0.7,0.1v1.7
			c-0.4-0.2-0.6-0.3-1-0.3c-0.9,0-1.4,0.7-1.4,1.8v2.6c0,0.6,0.1,0.9,0.5,1.1h-2.7c0.4-0.2,0.5-0.5,0.5-1.1v-4.4
			C554-178.2,553.9-178.3,553.6-178.6z M549.4-179.2c1.4,0,2.5,0.7,3.1,1.9c0.2,0.5,0.3,1,0.4,1.9h-5.4c0,0.4,0.1,0.5,0.2,0.9
			c0.3,0.8,1.1,1.3,2.2,1.3c0.5,0,1.1-0.1,1.6-0.4c0.4-0.1,0.6-0.3,1.2-0.6l-0.4,2.1c-0.2,0-0.4,0.1-0.5,0.1
			c-0.6,0.1-1.3,0.2-1.8,0.2c-2.6,0-4.3-1.4-4.3-3.6C545.7-177.6,547.3-179.2,549.4-179.2z M540.8-179c-0.2,0.1-0.2,0.2-0.2,0.5
			c0,0.1,0.1,0.4,0.1,0.5l1.5,2.9l1.4-2.8c0.1-0.2,0.2-0.5,0.2-0.7c0-0.2-0.1-0.3-0.3-0.4h2.5c-0.2,0.2-0.2,0.3-0.4,0.4
			c-0.2,0.3-0.5,0.7-0.7,1l-3,5.6l-3.2-6.1c0,0-0.1-0.1-0.1-0.2c-0.1-0.1-0.1-0.2-0.2-0.3c-0.1-0.2-0.2-0.3-0.5-0.5H540.8z
			 M534.7-179.2c2.3,0,3.8,1.4,3.8,3.5c0,2.2-1.6,3.8-3.9,3.8c-2.3,0-3.9-1.4-3.9-3.6C530.8-177.6,532.4-179.2,534.7-179.2z
			 M517.6-168.1h5.8v6.1h-5.8V-168.1z M513.5-179.2c1.4,0,2.5,0.7,3.1,1.9c0.2,0.5,0.3,1,0.4,1.9h-5.4c0,0.4,0.1,0.5,0.2,0.9
			c0.3,0.8,1.1,1.3,2.2,1.3c0.5,0,1.1-0.1,1.6-0.4c0.4-0.1,0.6-0.3,1.2-0.6l-0.4,2.1c-0.2,0-0.4,0.1-0.5,0.1
			c-0.6,0.1-1.3,0.2-1.8,0.2c-2.6,0-4.3-1.4-4.3-3.6C509.8-177.6,511.4-179.2,513.5-179.2z M505.2-179h0.5v-1.6l1.7-0.5v2.1h0.6
			c0.1,0,0.2,0,0.3,0c0.2,0,0.3,0,0.4,0c0.2,0,0.3-0.1,0.6-0.1l-0.8,1.5h-1.1v3.5c0,0.7,0.1,0.9,0.6,0.9c0.5,0,0.9-0.1,1.6-0.3
			l-0.5,1.6l-0.4,0.1c-0.6,0.1-0.8,0.1-1.1,0.1c-0.6,0-1.1-0.1-1.4-0.4c-0.4-0.3-0.5-0.8-0.5-1.9v-3.5h-0.1c-0.3,0-0.8,0.1-1.2,0.2
			L505.2-179z M502-177.3c-0.2-0.4-0.6-0.6-1.5-0.6c-0.5,0-1,0.1-1.4,0.2c-0.5,0.1-0.8,0.2-1.5,0.6l0.5-1.8c0.2,0,0.4-0.1,0.5-0.1
			c0.7-0.1,1.1-0.1,1.6-0.1c0.9,0,1.5,0.1,2.1,0.3c0.4,0.1,0.7,0.3,0.9,0.5c0.3,0.3,0.4,0.7,0.4,1.9v2.4c0,0.5,0,0.8,0.1,1.2
			c0.1,0.3,0.1,0.4,0.2,0.7h-1.7c0-0.2,0-0.3-0.1-0.6c-0.5,0.5-1.3,0.8-2.3,0.8c-1.8,0-2.8-0.8-2.8-2.2c0-1.7,1.4-2.6,3.9-2.6
			c0.3,0,0.5,0,0.9,0.1C502.1-177.1,502.1-177.2,502-177.3z M492.4-179h0.5v-1.6l1.7-0.5v2.1h0.6c0.1,0,0.2,0,0.3,0
			c0.2,0,0.3,0,0.4,0c0.2,0,0.3-0.1,0.6-0.1l-0.8,1.5h-1.1v3.5c0,0.7,0.1,0.9,0.6,0.9c0.5,0,0.9-0.1,1.6-0.3l-0.5,1.6L496-172
			c-0.6,0.1-0.8,0.1-1.1,0.1c-0.6,0-1.1-0.1-1.4-0.4c-0.4-0.3-0.5-0.8-0.5-1.9v-3.5h-0.1c-0.3,0-0.8,0.1-1.2,0.2L492.4-179z
			 M489.8-175.5c-0.2-0.3-0.5-0.5-1.3-0.8c-0.1,0-0.4-0.1-0.7-0.3c-1-0.4-1.4-0.5-1.8-0.8c-0.8-0.5-1.1-1.1-1.1-1.9
			c0-1.8,1.4-2.7,3.8-2.7c0.6,0,0.8,0,1.9,0.2l0.3,0l0.3,2.1c-0.6-0.4-0.8-0.5-1-0.6c-0.5-0.2-1.1-0.3-1.6-0.3
			c-1.1,0-1.7,0.4-1.7,1.1c0,0.3,0.1,0.5,0.2,0.6c0.3,0.3,0.7,0.5,1.9,0.9c1.4,0.5,1.7,0.6,2.2,1c0.5,0.5,0.8,1.1,0.8,1.9
			c0,1.9-1.6,3.1-4.1,3.1c-0.8,0-1.7-0.1-2.7-0.4l-0.3-2.1c0.4,0.3,0.5,0.3,0.8,0.5c0.8,0.4,1.6,0.6,2.4,0.6c1.3,0,2.2-0.6,2.2-1.5
			C490-175,489.9-175.3,489.8-175.5z M514-163.9l-0.4,1.1l-13.1,29.5l-12.9-29.2c-0.1-0.3-0.3-0.7-0.6-1.3c-0.3-0.6-0.5-1.1-0.8-1.5
			c-0.5-1.1-1.1-1.7-2.1-2.6h9.1c-0.7,0.6-0.8,0.9-0.8,1.6c0,0.6,0.4,2,0.8,2.9l7.8,18l8-18.5c0.4-0.9,0.7-2.1,0.7-2.6
			c0-0.6-0.2-1-0.7-1.5h7.9C515.3-166.8,515-166.4,514-163.9z M516.5-134c1.2-0.8,1.6-1.8,1.6-3.9v-16.4c0-2-0.2-2.6-1.2-3.5
			l6.5-2.2v22c0,2.1,0.4,3.1,1.6,3.9H516.5z M522.5-173.1c-1.2-0.9-1.8-2.3-1.8-3.8c0-2.9,2.3-5,5.6-5c0.3,0,0.7,0,1,0.1
			c0.6,0.1,0.9,0.1,1.8,0.3l0.2,2.2c-1.2-0.9-2.1-1.3-3.2-1.3c-2.2,0-3.6,1.4-3.6,3.6c0,2.2,1.5,3.7,3.8,3.7c0.7,0,1.2-0.1,1.8-0.4
			v-2.4c0-0.6-0.1-0.9-0.5-1.1h2.7c-0.4,0.2-0.5,0.5-0.5,1.1v2.8c0,0.4,0,0.5,0.2,0.7c-1.2,0.4-2.6,0.6-3.9,0.6
			C524.6-171.9,523.5-172.3,522.5-173.1z M546.3-134.2l-0.8,0.2c-3,0.7-3.6,0.7-5.8,0.7c-4.2,0-7-0.9-9.4-3.1c-2.6-2.4-4-5.8-4-9.7
			c0-7.7,5.2-12.9,12.9-12.9c1.5,0,3.6,0.2,5.8,0.6l0.4,0.1l0.9,6.3c-2.3-1.4-4.7-2.1-7.1-2.1c-4.4,0-7.2,3.2-7.2,8.1
			c0,5,2.8,8.2,7.2,8.2c1.4,0,2.7-0.3,4.5-0.9c1.4-0.6,2.1-0.9,3.7-2L546.3-134.2z M563.2-133.8l-1.3,0.2c-1.8,0.3-2.5,0.3-3.4,0.3
			c-1.9,0-3.4-0.5-4.4-1.4c-1.2-1.1-1.7-3-1.7-6.6v-12.4h-0.2c-1,0-2.4,0.2-3.9,0.6l2.5-5.3h1.7v-5.7l5.4-1.7v7.4h1.9
			c0.2,0,0.5,0,1,0c0.5-0.1,0.9-0.1,1.3-0.2c0.6-0.1,0.9-0.2,1.8-0.4l-2.5,5.3h-3.5v12.3c0,2.5,0.4,3.2,1.9,3.2c1.6,0,2.8-0.3,5-1.2
			L563.2-133.8z M578-133.3c-7.3,0-12.2-5.1-12.2-12.7c0-7.6,5.1-13,12.4-13c7.2,0,12.1,5,12.1,12.4
			C590.3-138.8,585.2-133.3,578-133.3z M591.4-177.5c-0.2-0.3-0.6-0.4-1.1-0.4c-1,0-1.6,0.6-1.6,1.5v3.2c0,0.6,0.1,0.9,0.5,1.1h-2.7
			c0.4-0.2,0.5-0.5,0.5-1.1v-4.4c0-0.5-0.1-0.7-0.4-1l2.1-0.6v0.6c0.7-0.4,1.1-0.6,1.9-0.6c1,0,1.8,0.3,2.3,0.9
			c0.4,0.5,0.5,1.1,0.5,2.6v2.4c0,0.6,0.1,0.9,0.5,1.1h-2.7c0.4-0.2,0.5-0.5,0.5-1.1v-3.3C591.6-177,591.6-177.2,591.4-177.5z
			 M606.1-152.4c-1.4-0.8-2-1-3.1-1c-2.8,0-4.5,2.4-4.5,6.2v9.4c0,2.1,0.4,3.1,1.6,3.9h-8.5c1.2-0.8,1.6-1.8,1.6-3.9v-15.7
			c0-1.9-0.2-2.5-1.2-3.4l6.5-2.2v2.6c1.6-1.6,3.2-2.2,5.5-2.2c0.9,0,1.2,0.1,2.1,0.3V-152.4z M608-134c1.2-0.8,1.6-1.8,1.6-3.9
			v-16.4c0-2-0.2-2.6-1.2-3.5l6.5-2.2v22c0,2.1,0.4,3.1,1.6,3.9H608z M634.5-134c-0.1-0.6-0.1-1-0.2-2.2c-1.7,1.9-4,2.9-7.2,2.9
			c-5.6,0-8.9-2.9-8.9-7.9c0-5.9,4.4-9.1,12.4-9.1c0.9,0,1.5,0,3,0.2c0-1.5,0-1.8-0.3-2.4c-0.5-1.3-2-2-4.6-2
			c-1.6,0-3.1,0.2-4.4,0.6c-1.4,0.4-2.4,0.8-4.6,2l1.7-6.5c0.8-0.1,1.4-0.2,1.7-0.3c2.1-0.3,3.4-0.4,5.1-0.4c2.8,0,4.9,0.3,6.7,1
			c1.2,0.5,2.1,1.1,2.7,1.9c0.9,1.2,1.2,2.6,1.2,6.7v8.6c0,1.7,0.1,3,0.3,4.3c0.2,1.1,0.3,1.5,0.8,2.6H634.5z M630.4-146.1
			c-4.5,0-6.8,1.6-6.8,4.4c0,2.5,1.7,4,4.4,4c3.6,0,5.6-2.4,5.6-6.8c0-0.5,0-1,0-1.5C632-146.1,631.3-146.1,630.4-146.1z
			 M615.7-200.5l-0.2,1.5l1.3-0.7l1.3,0.7l-0.2-1.5l1-0.9l-1.5-0.3l-0.6-1.3l-0.6,1.3l-1.5,0.3L615.7-200.5z M609.9-215.4l-0.3,2.8
			l2.1-1.9l2.1,1.9l-0.3-2.8h2.4l-2.1-1.9l1.6-2.3l-2.7,0.6l-1.1-2.7l-1.1,2.7l-2.7-0.6l1.6,2.3l-2.1,1.9H609.9z M621.4-205.6
			l2.2-0.3l0.9,1.8l0.9-1.8l2.2,0.3l-1.2-1.9l1.1-1.9l-2.2,0.3l-0.9-1.8l-0.9,1.8l-2.2-0.3l1.2,1.9L621.4-205.6z M598-204.9
			l-0.3,2.4l1.8-1.6l1.8,1.6l-0.3-2.4h2.2l-1.9-1.6l1.5-1.9l-2.4,0.5l-0.8-2.3l-0.8,2.3l-2.4-0.5l1.5,1.9l-1.9,1.6H598z
			 M608.8-183.6l2.3-1.2l1.2,2.3l0.6-2.8l2.6,1.1l-1.2-2.3l2.3-1.2l-2.8-0.6l1.1-2.7l-2.3,1.2l-1.2-2.3l-0.6,2.8l-2.6-1.1l1.2,2.3
			l-2.3,1.2l2.8,0.6L608.8-183.6z"/>
	</g>
</g>
</svg>
